<svg width="28" height="22" viewBox="0 0 28 22" fill="none" xmlns="http://www.w3.org/2000/svg">
<path fill-rule="evenodd" clip-rule="evenodd" d="M0 10.7106C0 7.87 1.42657 5.14571 3.96588 3.13707C6.50519 1.12844 9.94923 0 13.5404 0C17.1315 0 20.5755 1.12844 23.1148 3.13707C25.6541 5.14571 27.0807 7.87 27.0807 10.7106C27.0807 13.5513 25.6541 16.2756 23.1148 18.2842C20.5755 20.2928 17.1315 21.4213 13.5404 21.4213C9.94923 21.4213 6.50519 20.2928 3.96588 18.2842C1.42657 16.2756 0 13.5513 0 10.7106ZM13.5404 1.53633C11.2923 1.53639 9.09275 2.05323 7.20924 3.02399C5.32574 3.99474 3.83947 5.37755 2.93126 7.00421C2.02305 8.63086 1.73205 10.4312 2.09364 12.1863C2.45524 13.9414 3.45385 15.5755 4.968 16.8899C5.88709 15.7509 7.1544 14.8135 8.65274 14.1646C10.1511 13.5156 11.8321 13.1758 13.5404 13.1768C15.2486 13.1758 16.9296 13.5156 18.428 14.1646C19.9263 14.8135 21.1936 15.7509 22.1127 16.8899C23.6269 15.5755 24.6255 13.9414 24.9871 12.1863C25.3487 10.4312 25.0577 8.63086 24.1494 7.00421C23.2412 5.37755 21.755 3.99474 19.8715 3.02399C17.988 2.05323 15.7884 1.53639 13.5404 1.53633ZM20.6591 17.954C19.9361 16.9674 18.8978 16.1486 17.6482 15.5797C16.3987 15.0109 14.982 14.712 13.5404 14.7132C12.0987 14.712 10.682 15.0109 9.43247 15.5797C8.18295 16.1486 7.14459 16.9674 6.4216 17.954C8.45549 19.2082 10.9615 19.8879 13.5404 19.8849C16.2227 19.8849 18.6924 19.1637 20.6591 17.954ZM8.73591 9.10153C8.73591 8.09361 9.24209 7.12696 10.1431 6.41425C11.0441 5.70154 12.2661 5.30114 13.5404 5.30114C14.8146 5.30114 16.0366 5.70154 16.9376 6.41425C17.8386 7.12696 18.3448 8.09361 18.3448 9.10153C18.3448 10.1095 17.8386 11.0761 16.9376 11.7888C16.0366 12.5015 14.8146 12.9019 13.5404 12.9019C12.2661 12.9019 11.0441 12.5015 10.1431 11.7888C9.24209 11.0761 8.73591 10.1095 8.73591 9.10153ZM13.5404 6.83747C13.1645 6.83747 12.7923 6.89603 12.445 7.00981C12.0978 7.12359 11.7822 7.29036 11.5165 7.5006C11.2507 7.71083 11.0398 7.96042 10.896 8.23511C10.7522 8.5098 10.6781 8.80421 10.6781 9.10153C10.6781 9.39885 10.7522 9.69326 10.896 9.96795C11.0398 10.2426 11.2507 10.4922 11.5165 10.7025C11.7822 10.9127 12.0978 11.0795 12.445 11.1933C12.7923 11.307 13.1645 11.3656 13.5404 11.3656C14.2995 11.3656 15.0275 11.1271 15.5643 10.7025C16.101 10.2779 16.4026 9.702 16.4026 9.10153C16.4026 8.50107 16.101 7.92519 15.5643 7.5006C15.0275 7.076 14.2995 6.83747 13.5404 6.83747Z" fill="white"/>
</svg>
