<svg width="57" height="46" viewBox="0 0 57 46" fill="none" xmlns="http://www.w3.org/2000/svg">
<path d="M28.5725 44.9158C44.2182 44.863 56.8492 34.787 56.7825 22.4101C56.7158 10.0332 43.9766 0.0427651 28.3309 0.0955353C12.684 0.148309 0.0541287 10.2243 0.120846 22.6012C0.187563 34.9782 12.9256 44.9686 28.5725 44.9158ZM14.5551 21.6188L39.3871 21.535L30.9872 15.2576C30.5143 14.9034 30.4922 14.3124 30.94 13.9374C31.1715 13.7442 31.4814 13.6461 31.7942 13.645C32.0858 13.6441 32.3802 13.729 32.609 13.9L43.1529 21.78C43.16 21.7856 43.1671 21.7912 43.1731 21.7958C43.1861 21.8061 43.1992 21.8172 43.2122 21.8284C43.3427 21.9409 43.439 22.0788 43.4871 22.2318C43.4955 22.2588 43.5027 22.2859 43.5076 22.313C43.5173 22.3587 43.5222 22.4063 43.5225 22.4548C43.5228 22.5034 43.5183 22.551 43.5091 22.5968C43.5045 22.6248 43.4976 22.652 43.4895 22.6781C43.4431 22.8314 43.3482 22.9699 43.219 23.0834C43.206 23.0946 43.1931 23.1059 43.1802 23.1162C43.1743 23.1218 43.1673 23.1265 43.1602 23.1321L32.7016 31.083C32.2313 31.4403 31.484 31.4288 31.0323 31.0569C30.5805 30.6849 30.5962 30.0937 31.0653 29.7364L39.3971 23.4025L14.5652 23.4863C13.9136 23.4885 13.3825 23.0719 13.3797 22.5565C13.3769 22.0411 13.9035 21.621 14.5551 21.6188Z" fill="white"/>
</svg>
