<svg width="27" height="21" viewBox="0 0 27 21" fill="none" xmlns="http://www.w3.org/2000/svg">
<path d="M18.3058 12.8003C19.7922 11.4467 20.731 9.71056 20.731 7.79787C20.731 3.50169 16.0763 0 10.3655 0C4.65469 0 0 3.50169 0 7.79787C0 12.0941 4.65469 15.5957 10.3655 15.5957C12.8688 15.5957 15.2157 14.919 17.015 13.7713L25.0727 19.8331C25.2683 19.9802 25.503 20.0391 25.7377 20.0391C25.9724 20.0391 26.2071 19.9802 26.4026 19.8331C26.7547 19.5682 26.7547 19.0974 26.4026 18.8326L18.3058 12.8003ZM10.3264 14.1833C5.63256 14.1833 1.83841 11.329 1.83841 7.79787C1.83841 4.26676 5.63256 1.41245 10.3264 1.41245C15.0202 1.41245 18.8143 4.26676 18.8143 7.79787C18.8143 11.329 15.0202 14.1833 10.3264 14.1833Z" fill="white"/>
</svg>
