<svg width="57" height="42" viewBox="0 0 57 42" fill="none" xmlns="http://www.w3.org/2000/svg">
<path d="M28.5725 41.4753C44.2182 41.4265 56.8492 32.1224 56.7825 20.6935C56.7158 9.26468 43.9766 0.0395305 28.3309 0.0882584C12.684 0.13699 0.0541287 9.44115 0.120846 20.87C0.187563 32.2988 12.9256 41.524 28.5725 41.4753ZM14.5551 19.9628L39.3871 19.8855L30.9872 14.0889C30.5143 13.7618 30.4922 13.2161 30.94 12.8698C31.1715 12.6915 31.4814 12.6008 31.7942 12.5999C32.0858 12.5989 32.3802 12.6774 32.609 12.8353L43.1529 20.1117C43.16 20.1169 43.1671 20.122 43.1731 20.1263C43.1861 20.1357 43.1992 20.1461 43.2122 20.1564C43.3427 20.2603 43.439 20.3876 43.4871 20.5289C43.4955 20.5538 43.5027 20.5788 43.5076 20.6038C43.5173 20.646 43.5222 20.69 43.5225 20.7348C43.5228 20.7797 43.5183 20.8236 43.5091 20.8659C43.5045 20.8918 43.4976 20.9168 43.4895 20.941C43.4431 21.0826 43.3482 21.2105 43.219 21.3152C43.206 21.3256 43.1931 21.336 43.1802 21.3455C43.1743 21.3507 43.1673 21.355 43.1602 21.3602L32.7016 28.702C32.2313 29.032 31.484 29.0214 31.0323 28.6779C30.5805 28.3344 30.5962 27.7886 31.0653 27.4586L39.3971 21.6099L14.5652 21.6873C13.9136 21.6893 13.3825 21.3047 13.3797 20.8287C13.3769 20.3527 13.9035 19.9648 14.5551 19.9628Z" fill="white"/>
</svg>
