<svg width="21" height="25" viewBox="0 0 21 25" fill="none" xmlns="http://www.w3.org/2000/svg">
<path d="M14.4158 15.9692C15.5864 14.2805 16.3256 12.1145 16.3256 9.72834C16.3256 4.36858 12.6601 0 8.16282 0C3.66557 0 0 4.36858 0 9.72834C0 15.0881 3.66557 19.4567 8.16282 19.4567C10.1342 19.4567 11.9824 18.6123 13.3993 17.1806L19.7448 24.743C19.8988 24.9266 20.0836 25 20.2684 25C20.4532 25 20.6381 24.9266 20.7921 24.743C21.0693 24.4126 21.0693 23.8253 20.7921 23.4949L14.4158 15.9692ZM8.13201 17.6946C4.43564 17.6946 1.44774 14.1336 1.44774 9.72834C1.44774 5.32306 4.43564 1.76212 8.13201 1.76212C11.8284 1.76212 14.8163 5.32306 14.8163 9.72834C14.8163 14.1336 11.8284 17.6946 8.13201 17.6946Z" fill="white"/>
</svg>
